HIERARCHY
ROOT Hips
{
	OFFSET 0.000000 0.000000 0.000000
	CHANNELS 6 Xposition Yposition Zposition Xrotation Yrotation Zrotation
	JOINT LeftUpLeg_virtual
	{
		OFFSET 0.000000 0.000000 0.000000
		CHANNELS 3 Xrotation Yrotation Zrotation
		JOINT LeftUpLeg
		{
			OFFSET 11.394100 -6.187798 -0.413800
			CHANNELS 3 Xrotation Yrotation Zrotation
			JOINT LeftLeg
			{
				OFFSET 0.430247 -32.302673 3.732800
				CHANNELS 3 Xrotation Yrotation Zrotation
				JOINT LeftFoot
				{
					OFFSET -0.430247 -48.264931 -6.423300
					CHANNELS 3 Xrotation Yrotation Zrotation
					JOINT LeftToeBase
					{
						OFFSET 4.230900 -16.068199 23.438400
						CHANNELS 3 Xrotation Yrotation Zrotation
						JOINT LeftToe_End
						{
							OFFSET 4.510700 0.695400 19.974600
							CHANNELS 3 Xrotation Yrotation Zrotation
							End Site
							{
								OFFSET 0 0 0
							}
						}
					}
				}
			}
		}
	}
	JOINT RightUpLeg_virtual
	{
		OFFSET 0.000000 0.000000 0.000000
		CHANNELS 3 Xrotation Yrotation Zrotation
		JOINT RightUpLeg
		{
			OFFSET -11.333700 -6.187798 -0.413800
			CHANNELS 3 Xrotation Yrotation Zrotation
			JOINT RightLeg
			{
				OFFSET -0.430392 -32.302628 3.733000
				CHANNELS 3 Xrotation Yrotation Zrotation
				JOINT RightFoot
				{
					OFFSET 0.430392 -48.264973 -6.423500
					CHANNELS 3 Xrotation Yrotation Zrotation
					JOINT RightToeBase
					{
						OFFSET -4.230900 -16.068199 23.438400
						CHANNELS 3 Xrotation Yrotation Zrotation
						JOINT RightToe_End
						{
							OFFSET -4.510700 0.695400 19.974600
							CHANNELS 3 Xrotation Yrotation Zrotation
							End Site
							{
								OFFSET 0 0 0
							}
						}
					}
				}
			}
		}
	}
	JOINT Spine_virtual
	{
		OFFSET 0.000000 0.000000 0.000000
		CHANNELS 3 Xrotation Yrotation Zrotation
		JOINT Spine
		{
			OFFSET -0.002400 12.777504 0.315300
			CHANNELS 3 Xrotation Yrotation Zrotation
			JOINT Spine1
			{
				OFFSET -0.002067 5.816869 0.032633
				CHANNELS 3 Xrotation Yrotation Zrotation
				JOINT Spine1_split
				{
					OFFSET -0.002067 5.816869 0.032633
					CHANNELS 3 Xrotation Yrotation Zrotation
					JOINT Spine2
					{
						OFFSET -0.002067 5.816869 0.032633
						CHANNELS 3 Xrotation Yrotation Zrotation
						JOINT Neck_virtual
						{
							OFFSET 0.000000 0.000000 0.000000
							CHANNELS 3 Xrotation Yrotation Zrotation
							JOINT Neck
							{
								OFFSET -0.003700 21.199493 -0.826900
								CHANNELS 3 Xrotation Yrotation Zrotation
								JOINT Head
								{
									OFFSET 0.000000 20.442200 4.834800
									CHANNELS 3 Xrotation Yrotation Zrotation
									JOINT HeadTop_End
									{
										OFFSET 0.000000 34.668396 4.968400
										CHANNELS 3 Xrotation Yrotation Zrotation
										End Site
										{
											OFFSET 0 0 0
										}
									}
								}
							}
						}
						JOINT LeftShoulder_virtual
						{
							OFFSET 0.000000 0.000000 0.000000
							CHANNELS 3 Xrotation Yrotation Zrotation
							JOINT LeftShoulder
							{
								OFFSET 3.288150 8.794197 -1.372250
								CHANNELS 3 Xrotation Yrotation Zrotation
								JOINT LeftShoulder_split
								{
									OFFSET 3.288150 8.794197 -1.372250
									CHANNELS 3 Xrotation Yrotation Zrotation
									JOINT LeftArm
									{
										OFFSET 11.953299 -2.279007 -0.146200
										CHANNELS 3 Xrotation Yrotation Zrotation
										JOINT LeftForeArm
										{
											OFFSET 18.448900 0.000000 0.000000
											CHANNELS 3 Xrotation Yrotation Zrotation
											JOINT LeftHand
											{
												OFFSET 29.527798 0.000000 0.000000
												CHANNELS 3 Xrotation Yrotation Zrotation
												End Site
												{
													OFFSET 0 0 0
												}
											}
										}
									}
								}
							}
						}
						JOINT RightShoulder_virtual
						{
							OFFSET 0.000000 0.000000 0.000000
							CHANNELS 3 Xrotation Yrotation Zrotation
							JOINT RightShoulder
							{
								OFFSET -3.249400 8.794197 -1.372250
								CHANNELS 3 Xrotation Yrotation Zrotation
								JOINT RightShoulder_split
								{
									OFFSET -3.249400 8.794197 -1.372250
									CHANNELS 3 Xrotation Yrotation Zrotation
									JOINT RightArm
									{
										OFFSET -11.953299 -2.279007 -0.146200
										CHANNELS 3 Xrotation Yrotation Zrotation
										JOINT RightForeArm
										{
											OFFSET -18.448900 0.000000 0.000000
											CHANNELS 3 Xrotation Yrotation Zrotation
											JOINT RightHand
											{
												OFFSET -29.527802 0.000000 0.000000
												CHANNELS 3 Xrotation Yrotation Zrotation
												End Site
												{
													OFFSET 0 0 0
												}
											}
										}
									}
								}
							}
						}
					}
				}
			}
		}
	}
}
MOTION
Frames: 11
Frame Time: 0.03333333
-0.474612 96.396477 2.336273 0.000000 0.000000 0.000000 -5.696057 -44.479152 -5.551826 -31.583065 2.076146 14.537817 32.470641 -13.131984 0.400814 -6.449656 0.848540 -3.244624 0.386292 -6.692016 -3.459449 0.000000 0.000000 0.000000 -7.546508 -41.934329 -5.521964 -4.601269 -11.544311 -16.856214 23.459145 -12.851627 -3.180807 -18.131196 -0.427570 22.605512 -0.395663 -0.228521 3.501132 0.000000 0.000000 0.000000 -4.984033 -44.437487 -4.600479 5.975268 5.634982 -0.589271 11.058688 9.333822 -3.396728 0.702522 -3.244287 0.932131 0.000000 0.000000 0.000000 11.552544 9.076487 -3.502160 -4.705348 -2.943420 -0.155516 -3.906612 23.695236 -1.324725 0.000000 0.000000 0.000000 11.924703 9.199543 -3.251964 2.059388 0.165613 -7.640157 -3.733845 -2.441924 -0.732788 -13.610822 5.246331 -61.981658 10.344485 -46.171935 6.422423 0.000000 0.000000 0.000000 11.507539 9.199709 -3.229018 2.812832 7.198560 9.643258 -0.679047 3.397926 1.146049 -0.637163 -24.854138 62.540600 -3.141052 44.293821 5.766257 0.000000 0.000000 0.000000 
-0.744114 96.260971 2.345009 0.000000 0.000000 0.000000 -5.779173 -44.975238 -5.327265 -31.862672 1.600360 13.588894 32.773454 -11.946771 0.511261 -6.590033 1.448913 -1.692352 -0.288871 -6.576875 -4.028458 0.000000 0.000000 0.000000 -7.415199 -42.050551 -5.302004 -4.688983 -11.916599 -16.445052 24.853259 -13.470041 -3.074233 -19.455164 -1.179109 21.703572 1.166264 0.053861 3.509928 0.000000 0.000000 0.000000 -5.333915 -44.207016 -4.796205 6.249238 5.650496 -0.669324 11.086580 9.273990 -3.441220 0.966709 -3.357574 1.126571 0.000000 0.000000 0.000000 11.422235 8.989100 -3.478238 -4.847441 -2.645989 -0.447134 -3.728523 23.683500 -1.297377 0.000000 0.000000 0.000000 11.879675 9.087726 -3.316130 2.136770 0.214137 -7.495468 -3.409011 -3.091720 -0.586968 -13.554615 4.994187 -61.715158 10.357145 -46.992726 6.459309 0.000000 0.000000 0.000000 11.593974 9.145917 -3.216125 2.898901 7.176307 9.853966 -0.606222 3.385772 0.893561 0.152913 -25.484874 62.456910 -2.751560 43.311179 5.602733 0.000000 0.000000 0.000000 
-0.882103 96.053299 2.000324 0.000000 0.000000 0.000000 -5.721260 -44.523999 -4.925691 -32.547245 0.636907 12.536975 33.724424 -11.224401 0.906120 -5.472562 1.235099 -1.631194 -0.708529 -6.573320 -3.603367 0.000000 0.000000 0.000000 -7.297832 -41.870221 -4.913874 -5.488512 -11.781989 -16.364829 27.800951 -13.915330 -2.901969 -19.290242 -1.661487 21.660029 -0.522797 0.585117 3.868740 0.000000 0.000000 0.000000 -5.515380 -43.645360 -4.792401 6.696253 5.545228 -0.642009 11.065584 9.002200 -3.441100 1.112528 -3.057996 0.941656 0.000000 0.000000 0.000000 11.254491 8.727442 -3.457998 -5.339311 -2.236744 -0.778564 -3.365676 23.592527 -1.293871 0.000000 0.000000 0.000000 11.859960 8.799992 -3.329152 2.219246 0.135671 -7.469154 -3.172196 -3.698312 -0.508140 -13.266319 4.621752 -60.982169 10.550104 -47.746697 6.470190 0.000000 0.000000 0.000000 11.647192 8.916729 -3.183510 2.952266 7.110293 10.034506 -0.881102 3.668758 0.626499 1.124820 -25.682099 62.335394 -1.795273 42.753883 5.158906 0.000000 0.000000 0.000000 
-0.949573 95.831940 1.535244 0.000000 0.000000 0.000000 -5.473061 -43.463765 -4.448551 -33.639870 -0.439851 11.615971 34.725419 -10.710646 1.357310 -3.435789 0.303725 -2.738045 -1.182759 -6.699082 -1.997716 0.000000 0.000000 0.000000 -7.064695 -41.227964 -4.408680 -6.628503 -10.996602 -16.327099 31.037360 -14.173652 -2.901231 -17.988061 -1.839240 22.620135 -4.597753 1.288828 4.642363 0.000000 0.000000 0.000000 -5.531120 -42.850015 -4.622205 7.231063 5.353457 -0.505476 10.997358 8.576530 -3.415523 0.876488 -2.285862 0.654716 0.000000 0.000000 0.000000 11.083179 8.328666 -3.456451 -6.170784 -1.766035 -1.129172 -2.840250 23.331380 -1.264699 0.000000 0.000000 0.000000 11.869886 8.375241 -3.322636 2.295698 -0.030460 -7.601964 -3.233749 -4.092932 -0.605739 -12.746911 4.133946 -59.814057 10.854079 -48.174598 6.423985 0.000000 0.000000 0.000000 11.705880 8.549646 -3.151568 2.985640 7.011662 10.152217 -1.329165 4.095863 0.379132 2.196284 -25.080140 62.305587 -0.351710 42.601164 4.462551 0.000000 0.000000 0.000000 
-0.899667 95.478683 1.034740 0.000000 0.000000 0.000000 -4.919913 -41.965488 -3.903057 -35.134616 -1.213845 10.887730 35.373625 -9.795410 1.703257 -1.295146 -0.843469 -3.992475 -1.744072 -6.958028 0.484329 0.000000 0.000000 0.000000 -6.321521 -39.966189 -3.756687 -7.716622 -9.679403 -15.935519 33.456661 -14.795223 -3.228253 -16.566854 -1.949025 23.825327 -8.125576 2.312009 5.637874 0.000000 0.000000 0.000000 -5.297221 -41.838894 -4.349426 7.724676 5.109913 -0.297139 10.921310 8.070266 -3.382972 0.638186 -1.390383 0.457873 0.000000 0.000000 0.000000 10.933184 7.856244 -3.483867 -7.340981 -1.302407 -1.491981 -2.223821 22.797587 -1.176549 0.000000 0.000000 0.000000 11.915125 7.881512 -3.326614 2.332228 -0.277962 -7.835141 -3.511842 -4.468792 -0.914318 -12.167056 3.420756 -58.228578 11.235204 -48.113881 6.328834 0.000000 0.000000 0.000000 11.801577 8.129410 -3.138227 2.989461 6.921521 10.199399 -1.677559 4.497933 0.192454 3.139241 -23.743349 62.401981 1.456462 42.445985 3.540800 0.000000 0.000000 0.000000 
-0.790497 94.943192 0.839439 0.000000 0.000000 0.000000 -3.992271 -40.186197 -3.299518 -36.710255 -1.308769 10.368862 35.625071 -8.029276 1.858803 0.336628 -1.649785 -4.632980 -2.017973 -7.280493 3.067948 0.000000 0.000000 0.000000 -4.951012 -37.949525 -2.956430 -8.387572 -8.280815 -14.984578 34.258562 -16.061707 -3.863196 -15.890488 -2.215682 24.581217 -9.521205 3.844973 6.522910 0.000000 0.000000 0.000000 -4.696563 -40.481718 -3.942592 8.069647 4.838753 -0.097756 10.848728 7.550645 -3.367210 0.541799 -0.794033 0.310696 0.000000 0.000000 0.000000 10.827477 7.382745 -3.519191 -8.874176 -0.901926 -1.857210 -1.588250 21.955858 -1.010684 0.000000 0.000000 0.000000 11.969460 7.384527 -3.357883 2.306945 -0.619603 -8.090619 -3.745846 -4.864694 -1.352604 -11.798833 2.415441 -56.311338 11.704288 -47.422919 6.215866 0.000000 0.000000 0.000000 11.948140 7.720094 -3.140433 2.934232 6.891735 10.167754 -1.922287 4.570451 0.131035 3.604193 -21.762607 62.503464 3.401718 41.935104 2.464070 0.000000 0.000000 0.000000 
-0.759082 94.302605 0.994099 0.000000 0.000000 0.000000 -2.596933 -38.357540 -2.651487 -38.240088 -0.805089 9.946754 35.936692 -5.341263 1.898001 1.414722 -1.743973 -4.508436 -1.905696 -7.467352 5.075219 0.000000 0.000000 0.000000 -3.056978 -35.302280 -2.112634 -8.527492 -7.355467 -13.570987 33.909454 -17.899271 -4.678107 -15.861839 -2.624823 24.712946 -9.161739 6.004965 6.894758 0.000000 0.000000 0.000000 -3.763026 -38.755675 -3.400582 8.181009 4.586510 0.042113 10.772060 7.082869 -3.356848 0.441394 -0.545160 0.291651 0.000000 0.000000 0.000000 10.753123 6.964838 -3.523149 -10.751401 -0.574473 -2.281049 -1.051682 20.834184 -0.756397 0.000000 0.000000 0.000000 11.977052 6.955794 -3.409681 2.209397 -1.082251 -8.365372 -3.909400 -5.132056 -1.671310 -12.102118 1.073123 -54.151714 12.395660 -46.179438 6.187847 0.000000 0.000000 0.000000 12.136020 7.363220 -3.149618 2.848830 6.977378 10.019498 -2.047977 4.358369 0.080557 3.296220 -19.297957 62.601846 5.151094 41.202580 1.397402 0.000000 0.000000 0.000000 
-0.720675 93.640465 1.572754 0.000000 0.000000 0.000000 -0.786924 -36.500135 -2.006396 -39.728051 0.169603 9.431364 36.736681 -1.789361 1.856292 1.761966 -0.951864 -3.371447 -1.442398 -7.406781 6.024986 0.000000 0.000000 0.000000 -0.991298 -32.404589 -1.422877 -8.429142 -7.157902 -11.945841 33.461117 -20.157200 -5.425927 -15.502234 -2.777106 24.654109 -8.378023 8.693793 6.697029 0.000000 0.000000 0.000000 -2.407263 -36.545774 -2.776526 8.057110 4.361220 0.116622 10.676430 6.696096 -3.304310 0.470477 -0.629740 0.492527 0.000000 0.000000 0.000000 10.674393 6.619343 -3.456285 -12.929169 -0.243432 -2.829651 -0.689983 19.482543 -0.438656 0.000000 0.000000 0.000000 11.882027 6.623284 -3.428689 2.042608 -1.666397 -8.605176 -3.928199 -5.341311 -1.762911 -13.472001 -0.798048 -51.802958 13.400542 -44.740461 6.340258 0.000000 0.000000 0.000000 12.275857 7.064357 -3.134360 2.735422 7.187442 9.726634 -2.073622 4.099623 -0.036705 1.789727 -16.712295 62.618969 6.489297 40.853260 0.418479 0.000000 0.000000 0.000000 
-0.626827 93.194069 2.716331 0.000000 0.000000 0.000000 1.139858 -34.651858 -1.519071 -41.008480 1.345314 8.693099 38.313376 2.037949 1.739512 1.270993 0.452333 -1.500780 -0.745429 -7.050821 5.672248 0.000000 0.000000 0.000000 0.836376 -29.570153 -1.059607 -8.097995 -7.667044 -10.347554 33.436009 -22.477816 -6.027862 -13.942018 -2.319310 24.620998 -8.487993 11.512637 6.705817 0.000000 0.000000 0.000000 -0.648748 -33.927278 -2.172344 7.777709 4.170511 0.144230 10.526086 6.394165 -3.176893 0.451232 -0.731673 0.707303 0.000000 0.000000 0.000000 10.561791 6.338444 -3.289027 -15.298464 0.200841 -3.581115 -0.545476 17.975313 -0.075005 0.000000 0.000000 0.000000 11.649376 6.388415 -3.347909 1.823572 -2.402992 -8.840662 -3.803215 -5.272864 -1.673113 -15.905545 -3.480878 -49.469209 14.716752 -43.411391 6.694277 0.000000 0.000000 0.000000 12.278921 6.803948 -3.046309 2.585712 7.573835 9.249124 -1.896317 3.821365 -0.147763 -1.119529 -13.919890 62.576103 7.376185 41.464077 -0.547859 0.000000 0.000000 0.000000 
-0.476361 92.991165 4.349285 0.000000 0.000000 0.000000 2.944027 -32.610315 -1.286532 -42.411223 2.379486 7.692527 40.544949 5.479146 1.518753 0.119967 2.011922 0.572235 0.382002 -6.372301 4.001165 0.000000 0.000000 0.000000 2.435360 -26.806693 -1.020700 -7.624328 -8.539941 -8.923546 33.888346 -24.706218 -6.555955 -10.999255 -1.330324 24.404575 -10.497694 13.867125 8.067752 0.000000 0.000000 0.000000 1.317874 -30.968095 -1.739341 7.419548 4.012787 0.184171 10.273858 6.157483 -2.960505 0.472318 -0.775644 0.847814 0.000000 0.000000 0.000000 10.374321 6.097751 -3.004486 -17.694742 0.763487 -4.517698 -0.568699 16.347047 0.335426 0.000000 0.000000 0.000000 11.269496 6.225015 -3.149574 1.592390 -3.301709 -9.128812 -3.706569 -4.977102 -1.459234 -19.155887 -7.132392 -47.384984 16.218078 -42.443711 7.236633 0.000000 0.000000 0.000000 12.118923 6.572190 -2.866153 2.460428 8.209928 8.539288 -1.570279 3.753988 -0.136142 -5.377907 -10.810085 62.642909 7.958494 43.131019 -1.625894 0.000000 0.000000 0.000000 
-0.186737 93.008659 6.388683 0.000000 0.000000 0.000000 4.481482 -30.037007 -1.288377 -44.127219 3.216566 6.529698 42.973436 8.019490 1.178831 -1.272368 3.268930 2.349452 1.855153 -5.453496 1.232826 0.000000 0.000000 0.000000 3.842066 -23.898033 -1.197824 -7.214344 -9.338901 -7.872713 34.551547 -26.922417 -7.086161 -6.874567 -0.236303 23.093112 -14.435665 15.017144 11.606939 0.000000 0.000000 0.000000 3.348687 -27.757361 -1.487243 7.068889 3.847123 0.229098 9.918694 5.942974 -2.687617 0.538604 -0.700652 0.986859 0.000000 0.000000 0.000000 10.082980 5.865648 -2.632046 -19.981980 1.428884 -5.601968 -0.680615 14.680286 0.850011 0.000000 0.000000 0.000000 10.788288 6.082980 -2.844408 1.372998 -4.315900 -9.453226 -3.743037 -4.507247 -1.457649 -22.729183 -11.697805 -45.718626 17.609773 -41.858626 7.825445 0.000000 0.000000 0.000000 11.785713 6.355095 -2.596084 2.357938 9.144063 7.632559 -1.277458 3.856409 0.079776 -10.821862 -7.191713 62.761393 8.451882 45.227238 -2.933061 0.000000 0.000000 0.000000 
